<svg width="180" height="180" viewBox="0 0 180 180" fill="none" xmlns="http://www.w3.org/2000/svg">
  <rect width="180" height="180" rx="40" fill="url(#gradient)"/>
  <path d="M75 50C75 46.6863 72.3137 44 69 44C65.6863 44 63 46.6863 63 50V57C63 60.3137 60.3137 63 57 63H50C46.6863 63 44 65.6863 44 69C44 72.3137 46.6863 75 50 75H57C60.3137 75 63 77.6863 63 81V130C63 133.314 65.6863 136 69 136C72.3137 136 75 133.314 75 130V81C75 77.6863 77.6863 75 81 75H99C102.314 75 105 77.6863 105 81V130C105 133.314 107.686 136 111 136C114.314 136 117 133.314 117 130V81C117 77.6863 119.686 75 123 75H130C133.314 75 136 72.3137 136 69C136 65.6863 133.314 63 130 63H123C119.686 63 117 60.3137 117 57V50C117 46.6863 114.314 44 111 44C107.686 44 105 46.6863 105 50V57C105 60.3137 102.314 63 99 63H81C77.6863 63 75 60.3137 75 57V50Z" fill="white"/>
  <defs>
    <linearGradient id="gradient" x1="0" y1="0" x2="180" y2="180" gradientUnits="userSpaceOnUse">
      <stop stop-color="#10B981"/>
      <stop offset="1" stop-color="#0D9488"/>
    </linearGradient>
  </defs>
</svg>

