<svg width="32" height="32" viewBox="0 0 32 32" fill="none" xmlns="http://www.w3.org/2000/svg">
  <rect width="32" height="32" rx="8" fill="url(#gradient)"/>
  <path d="M14 10C14 9.44772 13.5523 9 13 9C12.4477 9 12 9.44772 12 10V11C12 11.5523 11.5523 12 11 12H10C9.44772 12 9 12.4477 9 13C9 13.5523 9.44772 14 10 14H11C11.5523 14 12 14.4477 12 15V22C12 22.5523 12.4477 23 13 23C13.5523 23 14 22.5523 14 22V15C14 14.4477 14.4477 14 15 14H17C17.5523 14 18 14.4477 18 15V22C18 22.5523 18.4477 23 19 23C19.5523 23 20 22.5523 20 22V15C20 14.4477 20.4477 14 21 14H22C22.5523 14 23 13.5523 23 13C23 12.4477 22.5523 12 22 12H21C20.4477 12 20 11.5523 20 11V10C20 9.44772 19.5523 9 19 9C18.4477 9 18 9.44772 18 10V11C18 11.5523 17.5523 12 17 12H15C14.4477 12 14 11.5523 14 11V10Z" fill="white"/>
  <defs>
    <linearGradient id="gradient" x1="0" y1="0" x2="32" y2="32" gradientUnits="userSpaceOnUse">
      <stop stop-color="#10B981"/>
      <stop offset="1" stop-color="#0D9488"/>
    </linearGradient>
  </defs>
</svg>

